<svg xmlns="http://www.w3.org/2000/svg" width="327" height="178" viewBox="0 0 327 178">
    <g fill="none" fill-rule="evenodd">
        <path fill="#004359" d="M35.169 107.2a7.168 7.168 0 1 1 0 14.335 7.168 7.168 0 0 1 0-14.335zm93.63-43.233a7.168 7.168 0 1 1-14.336 0 7.168 7.168 0 0 1 14.337 0zM121.6 78.4a7.2 7.2 0 0 1 7.2 7.2v56.523l-13.923 8.039-.477.238v-36.262A28.655 28.655 0 0 1 100 118c-15.884 0-28.763-12.859-28.798-28.735H71.2c0-7.953-6.447-14.4-14.4-14.4s-14.4 6.447-14.4 14.4V92.8a7.2 7.2 0 1 1-14.4 0V36.277l13.923-8.039L42.4 28v36.327a28.655 28.655 0 0 1 14.4-3.862c15.884 0 28.763 12.859 28.798 28.735h.002c0 7.953 6.447 14.4 14.4 14.4s14.4-6.447 14.4-14.4v-3.6a7.2 7.2 0 0 1 7.2-7.2z"/>
        <path fill="#00AEEF" d="M162.603 106.98V96.773a9.76 9.76 0 0 0-.113-1.512 3.604 3.604 0 0 0-.435-1.267 2.444 2.444 0 0 0-.851-.869c-.353-.214-.807-.322-1.361-.322-1.083 0-1.915.385-2.495 1.153-.58.77-.869 1.72-.869 2.855v10.17h-6.2V78.4h6.2v12.134h.075c.429-.756 1.109-1.43 2.042-2.023.932-.59 2.054-.888 3.365-.888 1.285 0 2.362.227 3.232.68.869.454 1.575 1.04 2.117 1.758a6.933 6.933 0 0 1 1.172 2.477c.239.932.359 1.865.359 2.797v11.644h-6.238zM174.043 106.98V88.153h6.2v18.827h-6.2zm6.654-25.178c0 .48-.095.926-.284 1.342a3.47 3.47 0 0 1-.756 1.078 3.485 3.485 0 0 1-1.134.718 3.67 3.67 0 0 1-1.38.265c-1.008 0-1.852-.334-2.533-1.002-.68-.668-1.02-1.468-1.02-2.4 0-.454.088-.889.264-1.305.176-.416.428-.775.756-1.078a4.113 4.113 0 0 1 1.134-.737 3.43 3.43 0 0 1 1.399-.283c.479 0 .939.088 1.38.264.44.177.819.416 1.134.72.315.301.567.66.756 1.076.189.416.284.864.284 1.342zM165.211 131.886c0-.605-.094-1.197-.283-1.777a4.63 4.63 0 0 0-.832-1.531 4.214 4.214 0 0 0-1.38-1.077c-.555-.277-1.197-.416-1.928-.416-.706 0-1.336.139-1.89.416a4.5 4.5 0 0 0-1.418 1.096 5.02 5.02 0 0 0-.907 1.55 5.073 5.073 0 0 0 0 3.554c.214.58.516 1.096.907 1.55.391.453.863.819 1.418 1.096.554.278 1.184.416 1.89.416.731 0 1.373-.138 1.928-.416a4.11 4.11 0 0 0 1.38-1.096c.365-.454.643-.977.832-1.57a5.874 5.874 0 0 0 .283-1.795m6.011 0c0 1.31-.202 2.57-.605 3.78a9.71 9.71 0 0 1-1.758 3.195 8.678 8.678 0 0 1-2.816 2.212c-1.11.554-2.369.83-3.78.83a7.912 7.912 0 0 1-3.29-.698c-1.033-.466-1.84-1.102-2.419-1.91h-.076v11.153h-6.2v-27.9h5.898v2.306h.113c.58-.756 1.38-1.417 2.401-1.984s2.224-.851 3.61-.851c1.361 0 2.596.265 3.705.794a8.365 8.365 0 0 1 2.817 2.155 9.81 9.81 0 0 1 1.776 3.156c.416 1.198.624 2.452.624 3.762M174.062 141.375h6.314v-28.58h-6.314zM194.85 133.171h-.794c-.68 0-1.367.032-2.06.095a8.496 8.496 0 0 0-1.853.36c-.542.175-.99.434-1.342.774-.353.34-.53.788-.53 1.342 0 .353.082.655.247.907.163.252.37.454.624.605.25.151.54.26.869.321.327.064.643.095.945.095 1.26 0 2.224-.346 2.892-1.04.668-.693 1.002-1.63 1.002-2.816v-.643zm-11.38-8.052a10.834 10.834 0 0 1 3.876-2.382 13.282 13.282 0 0 1 4.518-.794c1.587 0 2.929.196 4.026.586 1.096.391 1.984.996 2.665 1.815.68.82 1.178 1.852 1.493 3.1.315 1.247.473 2.728.473 4.442v9.49h-5.671v-2.005h-.113c-.48.782-1.204 1.387-2.174 1.815a7.739 7.739 0 0 1-3.157.643 9.682 9.682 0 0 1-2.344-.303 6.829 6.829 0 0 1-2.211-.983 5.32 5.32 0 0 1-1.645-1.814c-.43-.757-.642-1.689-.642-2.798 0-1.36.37-2.457 1.115-3.289.743-.832 1.7-1.474 2.873-1.928 1.172-.454 2.476-.756 3.913-.907a39.863 39.863 0 0 1 4.196-.227v-.303c0-.932-.328-1.619-.983-2.06-.656-.44-1.462-.662-2.42-.662-.882 0-1.733.19-2.551.567-.82.378-1.52.832-2.098 1.361l-3.138-3.364zM210.161 127.16v7.211c0 .885.17 1.55.51 1.992.34.443.951.664 1.834.664.302 0 .623-.025.964-.075.34-.05.624-.126.85-.227l.076 4.536c-.429.152-.971.284-1.626.397-.655.114-1.31.17-1.966.17-1.26 0-2.318-.158-3.175-.473-.857-.316-1.544-.77-2.06-1.365a5.354 5.354 0 0 1-1.116-2.122c-.227-.82-.34-1.738-.34-2.748v-7.96h-3.024v-4.612h2.986v-4.952h6.087v4.952h4.423v4.612h-4.423zM230.703 117.369a5.284 5.284 0 0 0-.794-.19 5.551 5.551 0 0 0-.907-.075c-.58 0-1.046.102-1.399.303a2.24 2.24 0 0 0-.832.813c-.202.34-.34.725-.415 1.153a7.35 7.35 0 0 0-.114 1.285v1.89h4.197v4.612h-4.197v14.215h-6.2V127.16h-3.44v-4.612h3.44v-1.814c0-1.16.126-2.262.378-3.308.252-1.046.686-1.966 1.305-2.76.617-.794 1.448-1.424 2.495-1.89 1.045-.466 2.35-.7 3.912-.7.53 0 1.052.032 1.57.095.515.063.988.158 1.417.283l-.416 4.915zM245.447 131.886a5.39 5.39 0 0 0-.302-1.777 4.732 4.732 0 0 0-.87-1.531 4.422 4.422 0 0 0-1.399-1.077c-.554-.277-1.197-.416-1.928-.416-.731 0-1.374.139-1.928.416a4.204 4.204 0 0 0-1.38 1.077 4.627 4.627 0 0 0-.831 1.53 5.7 5.7 0 0 0 0 3.555c.189.58.472 1.103.85 1.569.378.466.844.838 1.399 1.115.554.278 1.197.416 1.928.416.731 0 1.374-.138 1.928-.416a4.191 4.191 0 0 0 1.399-1.115c.378-.466.662-.99.851-1.57.189-.58.283-1.171.283-1.776m5.973 0c0 1.538-.278 2.93-.831 4.177-.555 1.248-1.311 2.307-2.269 3.176a10.39 10.39 0 0 1-3.326 2.023 11.317 11.317 0 0 1-4.046.718 11.35 11.35 0 0 1-4.026-.718 10.12 10.12 0 0 1-3.327-2.023c-.945-.87-1.695-1.928-2.249-3.176-.555-1.247-.832-2.64-.832-4.177 0-1.537.277-2.923.832-4.16.554-1.233 1.304-2.28 2.249-3.136a9.776 9.776 0 0 1 3.327-1.966 11.886 11.886 0 0 1 4.026-.681c1.437 0 2.785.227 4.046.68a10.026 10.026 0 0 1 3.326 1.967c.958.857 1.714 1.903 2.269 3.137.553 1.236.831 2.622.831 4.159M266.24 127.652a4.778 4.778 0 0 0-.814-.151 8.234 8.234 0 0 0-.775-.038c-.83 0-1.53.15-2.098.452-.567.302-1.02.667-1.36 1.094-.34.427-.587.892-.738 1.395-.15.503-.227.942-.227 1.319v9.652h-6.2V122.57h5.973v2.722h.076a6.135 6.135 0 0 1 2.041-2.36c.882-.61 1.903-.914 3.063-.914.251 0 .497.013.737.038s.435.063.586.113l-.265 5.482zM292.907 141.375v-10.283c0-.53-.038-1.04-.113-1.531a3.678 3.678 0 0 0-.416-1.266 2.395 2.395 0 0 0-.813-.851c-.34-.214-.788-.321-1.342-.321-.529 0-.989.113-1.38.34a3.073 3.073 0 0 0-.983.907c-.264.378-.46.813-.586 1.304a6.147 6.147 0 0 0-.189 1.532v10.169h-6.2v-10.737c0-1.083-.214-1.94-.642-2.57-.429-.63-1.11-.945-2.042-.945-.983 0-1.745.39-2.287 1.172-.542.78-.813 1.739-.813 2.873v10.207h-6.238v-18.827h6.011v2.609h.076c.227-.403.51-.794.851-1.172.34-.378.75-.712 1.228-1.002a6.81 6.81 0 0 1 3.554-.964c1.361 0 2.514.278 3.46.832.944.554 1.681 1.348 2.211 2.38a7.169 7.169 0 0 1 2.42-2.343c.982-.58 2.18-.87 3.591-.87 1.285 0 2.362.234 3.232.7.87.467 1.57 1.072 2.098 1.815a7.553 7.553 0 0 1 1.153 2.495c.24.92.36 1.82.36 2.703v11.644h-6.2z"/>
    </g>
</svg>
